<svg width="17" height="17" viewBox="0 0 17 17" fill="none" xmlns="http://www.w3.org/2000/svg">
<path d="M9.51501 1.019C9.34364 1.00635 9.17185 1.00001 9.00001 1V2.81458e-07C9.19655 9.6109e-05 9.39301 0.00743442 9.58901 0.0220003L9.51501 1.019ZM11.519 1.469C11.1985 1.3453 10.8692 1.24537 10.534 1.17L10.753 0.194C11.136 0.28 11.513 0.394 11.879 0.536L11.519 1.469ZM12.889 2.179C12.746 2.08365 12.5996 1.99359 12.45 1.909L12.943 1.039C13.2849 1.23274 13.6121 1.45132 13.922 1.693L13.307 2.482C13.1714 2.37623 13.032 2.2755 12.889 2.18V2.179ZM14.723 3.969C14.5252 3.68798 14.3069 3.42192 14.07 3.173L14.794 2.483C15.064 2.768 15.314 3.073 15.541 3.393L14.723 3.969ZM15.467 5.321C15.4014 5.16246 15.33 5.00636 15.253 4.853L16.146 4.403C16.3226 4.75409 16.473 5.11774 16.596 5.491L15.646 5.804C15.5923 5.64087 15.5326 5.47976 15.467 5.321ZM15.997 7.828C15.9889 7.48434 15.9555 7.14174 15.897 6.803L16.882 6.633C16.949 7.019 16.988 7.411 16.998 7.803L15.998 7.828H15.997ZM15.866 9.366C15.899 9.196 15.926 9.027 15.947 8.856L16.94 8.979C16.892 9.36915 16.8151 9.75521 16.71 10.134L15.746 9.867C15.792 9.702 15.832 9.535 15.866 9.366ZM14.914 11.745C15.098 11.455 15.26 11.151 15.4 10.837L16.314 11.242C16.154 11.602 15.969 11.948 15.759 12.28L14.914 11.745ZM13.95 12.95C14.072 12.828 14.189 12.702 14.3 12.572L15.058 13.225C14.9296 13.3738 14.7959 13.5179 14.657 13.657L13.95 12.95Z" fill="white"/>
<path d="M9.00001 1C7.84889 1.00008 6.71556 1.28405 5.70039 1.82674C4.68522 2.36943 3.81956 3.1541 3.18007 4.11125C2.54058 5.0684 2.14701 6.16848 2.03421 7.31406C1.92141 8.45964 2.09286 9.61536 2.53339 10.6789C2.97391 11.7423 3.66991 12.6808 4.55974 13.4111C5.44956 14.1413 6.50575 14.6409 7.63475 14.8655C8.76374 15.0901 9.9307 15.0328 11.0323 14.6987C12.1338 14.3645 13.136 13.7639 13.95 12.95L14.657 13.657C13.7267 14.5878 12.5813 15.2747 11.3221 15.657C10.0628 16.0393 8.72878 16.105 7.43808 15.8485C6.14737 15.5919 4.93987 15.021 3.92256 14.1862C2.90525 13.3515 2.10955 12.2787 1.60595 11.0629C1.10234 9.84711 0.906397 8.52588 1.03547 7.21627C1.16453 5.90666 1.61463 4.6491 2.34588 3.55502C3.07713 2.46094 4.06695 1.56411 5.22764 0.944003C6.38833 0.323895 7.68406 -0.000348732 9.00001 2.81458e-07V1Z" fill="white"/>
<path d="M8.50001 3C8.63262 3 8.7598 3.05268 8.85356 3.14645C8.94733 3.24022 9.00001 3.36739 9.00001 3.5V8.71L12.248 10.566C12.3598 10.6334 12.4408 10.7419 12.4736 10.8683C12.5065 10.9946 12.4886 11.1288 12.4239 11.2422C12.3591 11.3556 12.2525 11.4391 12.127 11.4749C12.0015 11.5108 11.8669 11.4961 11.752 11.434L8.25201 9.434C8.17548 9.39029 8.11187 9.32712 8.06762 9.25091C8.02336 9.17469 8.00004 9.08813 8.00001 9V3.5C8.00001 3.36739 8.05269 3.24022 8.14646 3.14645C8.24023 3.05268 8.3674 3 8.50001 3Z" fill="white"/>
</svg>
